<svg width="653" height="705" viewBox="0 0 653 705" fill="none" xmlns="http://www.w3.org/2000/svg">
<path d="M0 24C0 10.7452 10.7452 0 24 0H595.122C601.493 0 607.603 2.53361 612.105 7.04243L645.984 40.9728C650.477 45.4726 653 51.5715 653 57.9304V681C653 694.255 642.255 705 629 705H24C10.7451 705 0 694.255 0 681V24Z" fill="#171B24"/>
<path d="M0.5 24C0.5 11.0213 11.0213 0.5 24 0.5H595.122C601.36 0.5 607.343 2.98082 611.751 7.39571L645.63 41.3261C650.029 45.7321 652.5 51.704 652.5 57.9304V681C652.5 693.979 641.979 704.5 629 704.5H24C11.0213 704.5 0.5 693.979 0.5 681V24Z" stroke="#66708D" stroke-opacity="0.3"/>
</svg>
