<svg width="995" height="705" viewBox="0 0 995 705" fill="none" xmlns="http://www.w3.org/2000/svg">
<path d="M0 24C0 10.7452 10.7452 0 24 0H937.059C943.424 0 949.529 2.52856 954.029 7.02944L987.971 40.9706C992.471 45.4714 995 51.5759 995 57.9411V681C995 694.255 984.255 705 971 705H24C10.7452 705 0 694.255 0 681V24Z" fill="#171B24"/>
<path d="M0.5 24C0.5 11.0213 11.0213 0.5 24 0.5H937.059C943.292 0.5 949.269 2.97589 953.676 7.38299L987.617 41.3241C992.024 45.7312 994.5 51.7085 994.5 57.9411V681C994.5 693.979 983.979 704.5 971 704.5H24C11.0213 704.5 0.5 693.979 0.5 681V24Z" stroke="#66708D" stroke-opacity="0.3"/>
</svg>
