<svg width="28" height="28" viewBox="0 0 28 28" fill="none" xmlns="http://www.w3.org/2000/svg">
<path opacity="0.4" fill-rule="evenodd" clip-rule="evenodd" d="M24.0801 22.5071H23.7217V11.6207C23.7217 10.4311 22.808 9.61902 21.716 9.48018C21.532 9.45676 21.3809 9.60944 21.3809 9.79501V22.5071H20.2273V6.07661C20.2273 5.20301 19.8129 4.41901 19.1633 3.92621C19.1185 3.89261 19.0737 3.85901 19.0289 3.82541C18.7489 3.61261 18.4129 3.46701 18.0545 3.42221C18.0097 3.41101 17.9537 3.39981 17.9089 3.39981C17.8417 3.38861 17.7745 3.37741 17.7073 3.38861C17.6401 3.36621 17.5729 3.36621 17.5057 3.36621H10.4945C10.3489 3.36621 10.2145 3.37741 10.0801 3.39981C10.0353 3.39981 9.99048 3.41101 9.94568 3.42221C9.58728 3.47821 9.25128 3.61261 8.97128 3.82541C8.92648 3.85901 8.88168 3.89261 8.83688 3.92621C8.18728 4.41901 7.77288 5.20301 7.77288 6.07661V22.5071H6.61928V9.79501C6.61928 9.60944 6.46821 9.45676 6.28412 9.48018C5.19217 9.61902 4.27848 10.4311 4.27848 11.6207V22.5071H3.92008C3.46088 22.5071 3.08008 22.8879 3.08008 23.3471C3.08008 23.8175 3.46088 24.1871 3.92008 24.1871H24.0801C24.5393 24.1871 24.9201 23.8175 24.9201 23.3471C24.9201 22.8879 24.5393 22.5071 24.0801 22.5071Z" fill="#0236E5"/>
<path d="M12.1296 8.28362C12.1856 8.28362 12.2416 8.28362 12.2976 8.27241C12.7456 8.18282 13.0368 7.73481 12.9472 7.28681V7.27561C12.8576 6.81641 12.4208 6.52521 11.9616 6.61481C11.5024 6.70441 11.2112 7.15241 11.3008 7.61161C11.3793 8.01481 11.7376 8.28362 12.1296 8.28362Z" fill="#0236E5"/>
<path d="M16.5089 22.5078L24.0375 22.5076C24.5079 22.5076 24.8775 22.8884 24.8775 23.3476C24.8775 23.818 24.5079 24.1876 24.0375 24.1876L3.92008 24.188C3.46088 24.188 3.08008 23.8184 3.08008 23.348C3.08008 22.8888 3.46088 22.508 3.92008 22.508L11.4913 22.5079V19.5399C11.4913 19.0247 11.9281 18.5879 12.4433 18.5879H15.5569C16.0833 18.5879 16.5089 19.0247 16.5089 19.5399V22.5078Z" fill="#0236E5"/>
<path d="M12.9472 14.7346V14.7458C13.0368 15.1938 12.7456 15.6418 12.2976 15.7314C12.2416 15.7426 12.1856 15.7426 12.1296 15.7426C11.7376 15.7426 11.3793 15.4738 11.3008 15.0706C11.2112 14.6114 11.5024 14.1634 11.9616 14.0738C12.4208 13.9842 12.8576 14.2754 12.9472 14.7346Z" fill="#0236E5"/>
<path d="M12.1297 12.0468C12.1745 12.0468 12.2305 12.0468 12.2865 12.0356C12.7345 11.946 13.0369 11.5092 12.9473 11.05V11.0388C12.8577 10.5909 12.4321 10.2885 11.9729 10.3781C11.5137 10.4677 11.2113 10.9157 11.3009 11.3636C11.3793 11.7668 11.7265 12.0468 12.1297 12.0468Z" fill="#0236E5"/>
<path d="M16.0384 8.27241C15.9824 8.28362 15.9264 8.28362 15.8704 8.28362C15.4784 8.28362 15.1312 8.01481 15.0528 7.61161C14.9632 7.15241 15.2544 6.70441 15.7136 6.61481C16.1616 6.52521 16.6096 6.81641 16.6992 7.27561V7.28681C16.7888 7.73481 16.4976 8.18282 16.0384 8.27241Z" fill="#0236E5"/>
<path d="M16.6992 14.7458V14.7346C16.6096 14.2754 16.1616 13.9842 15.7136 14.0738C15.2544 14.1634 14.9632 14.6114 15.0528 15.0706C15.1312 15.4738 15.4784 15.7426 15.8704 15.7426C15.9264 15.7426 15.9824 15.7426 16.0384 15.7314C16.4976 15.6418 16.7888 15.1938 16.6992 14.7458Z" fill="#0236E5"/>
<path d="M16.0385 12.0356C15.9825 12.0468 15.9265 12.0468 15.8705 12.0468C15.4785 12.0468 15.1313 11.7668 15.0529 11.3636C14.9633 10.9157 15.2657 10.4677 15.7137 10.3781C16.1841 10.2885 16.6097 10.5909 16.6993 11.0388V11.05C16.7889 11.5092 16.4865 11.946 16.0385 12.0356Z" fill="#0236E5"/>
</svg>
